<svg id="katman_1" data-name="katman 1" xmlns="http://www.w3.org/2000/svg" viewBox="0 0 707.56 736.98" fill="#E0DFD5">

<path class="cls-1" d="M0,558.45c-.47-19.15,4.27-37.2,16.4-51.79C25.28,496,25.16,486,22.37,473.75,6.94,406.09,13.15,340.06,37.68,275.32c5.32-14.06,10.15-18.46,25-9.29,36.12,22.27,36.66,21.52,26.13,61.35A286.72,286.72,0,0,0,83.57,451c1.83,10.6,5.51,15.44,16.94,17.53,63.31,11.56,93.3,61.95,73.18,123.1-3.77,11.45,0,16.87,8,23.18,36.54,28.75,77.5,47.82,123.33,55.41,11.75,2,15.8,6.59,15.37,17.92C318.32,743,332,743.48,268.72,728.82c-51-11.83-96.42-36-135.79-70.51-10.22-9-19.8-12.24-33.61-11.07C44.06,651.92.36,612.15,0,558.45Z" transform="translate(0 0)"/><path class="cls-1" d="M425.68,143.21c-38.59,48-98.82,51.16-140.72,6.14-8.74-9.39-15.65-9.29-25.71-5.62-44.4,16.16-82.33,41.88-112.93,77.73-8.63,10.12-15.57,12.32-26,3.92-5.11-4.09-11.27-6.86-16.92-10.27-25.29-15.28-25.21-15.22-4.81-38.22a333.36,333.36,0,0,1,149-97.54c11-3.56,17-9.08,21.08-20.38,13.3-37,46.89-59.46,85.36-59,37.69.49,70,22.81,83.11,59.32,4.1,11.43,10.87,16.38,21.63,19.91,66.55,21.84,120.83,61.1,164,116.16,8.23,10.49,9.22,16.11-4.22,23.49-39.25,21.53-38.88,22.1-69.3-9.08-29.54-30.28-64.62-52-104-67.12C438.64,140.07,432,136.71,425.68,143.21Z" transform="translate(0 0)"/><path class="cls-1" d="M691.85,397.94a357.43,357.43,0,0,1-9.29,81.26c-2.14,9.32-.74,15.9,5,23.51,23.79,31.67,26.75,65.87,7,100.14s-51.18,48.82-90.3,44.18c-12.55-1.49-20.9,2-30,10-49,42.72-106.18,68.27-170.33,78.82-13.49,2.22-18.72-.43-18.76-15.46-.12-44.43-.65-44.11,41.75-55.93,36.06-10,68.59-27.16,98.13-50.24,9.2-7.18,10.88-13.52,6.86-25.1-19.17-55.21,11.85-109.23,69.29-119.48,15.94-2.84,20.25-10,22.41-24,6.88-44.65,3.84-88.41-11.15-130.89-4.59-13-1.21-18.56,10.1-24.68,44.55-24.13,44.46-24.52,57.8,24.57a245.61,245.61,0,0,1,7,32.86C689.57,365.76,692.91,384.05,691.85,397.94Z" transform="translate(0 0)"/>
</svg>
